<?xml version="1.0" encoding="UTF-8"?>
<!DOCTYPE svg PUBLIC "-//W3C//DTD SVG 1.1//EN" "http://www.w3.org/Graphics/SVG/1.1/DTD/svg11.dtd">
<!-- Creator: CorelDRAW 2018 (64-Bit) -->
<svg xmlns="http://www.w3.org/2000/svg" xml:space="preserve" width="80mm" height="62mm" version="1.1" style="shape-rendering:geometricPrecision; text-rendering:geometricPrecision; image-rendering:optimizeQuality; fill-rule:evenodd; clip-rule:evenodd"
viewBox="0 0 8000 6200"
 xmlns:xlink="http://www.w3.org/1999/xlink">
 <defs>
  <style type="text/css">
   <![CDATA[
    .fil7 {fill:#B83333}
    .fil5 {fill:#B83333}
    .fil8 {fill:#C6CBE7}
    .fil4 {fill:#D04949}
    .fil2 {fill:#D6D6D6}
    .fil10 {fill:#DADFEF}
    .fil0 {fill:#EBEBEB}
    .fil6 {fill:#EDF1F8}
    .fil3 {fill:#F8FAFF}
    .fil1 {fill:#F96868}
    .fil11 {fill:url(#id0)}
    .fil9 {fill:url(#id1)}
    .fil12 {fill:url(#id2)}
    .fil13 {fill:url(#id3)}
   ]]>
  </style>
  <linearGradient id="id0" gradientUnits="userSpaceOnUse" x1="5018.64" y1="802.95" x2="4568.85" y2="1591.33">
   <stop offset="0" style="stop-opacity:1; stop-color:#A7ACCA"/>
   <stop offset="0.388235" style="stop-opacity:1; stop-color:#B0B4D1"/>
   <stop offset="1" style="stop-opacity:1; stop-color:#C6CAE3"/>
  </linearGradient>
  <linearGradient id="id1" gradientUnits="userSpaceOnUse" x1="3881.9" y1="1274.38" x2="3512.23" y2="1909.38">
   <stop offset="0" style="stop-opacity:1; stop-color:white"/>
   <stop offset="0.309804" style="stop-opacity:1; stop-color:#EFF1F8"/>
   <stop offset="0.901961" style="stop-opacity:1; stop-color:#C7CBE5"/>
   <stop offset="1" style="stop-opacity:1; stop-color:#BFC4E1"/>
  </linearGradient>
  <linearGradient id="id2" gradientUnits="userSpaceOnUse" x1="4039.68" y1="1465.13" x2="3748.65" y2="1972.11">
   <stop offset="0" style="stop-opacity:1; stop-color:#A7ACCA"/>
   <stop offset="0.560784" style="stop-opacity:1; stop-color:#B7BBDA"/>
   <stop offset="1" style="stop-opacity:1; stop-color:#BDC0E0"/>
  </linearGradient>
  <linearGradient id="id3" gradientUnits="userSpaceOnUse" x1="4780.52" y1="617.24" x2="4251.35" y2="1486.34">
   <stop offset="0" style="stop-opacity:1; stop-color:white"/>
   <stop offset="0.360784" style="stop-opacity:1; stop-color:white"/>
   <stop offset="0.560784" style="stop-opacity:1; stop-color:#F9FAFC"/>
   <stop offset="0.839216" style="stop-opacity:1; stop-color:#E8EBF5"/>
   <stop offset="1" style="stop-opacity:1; stop-color:#DADFEF"/>
  </linearGradient>
 </defs>
 <g id="Слой_x0020_1">
  <metadata id="CorelCorpID_0Corel-Layer"/>
  <path class="fil0" d="M472.88 1741.27c588.73,-1025.6 2142.03,-1298.39 3203.85,-634.77 1059.18,663.63 1881.82,1298.4 2849.01,1235.44 967.21,-62.95 2404.85,1565.94 425.79,2927.3 -1979.08,1361.36 -4604.7,839.36 -5642.86,120.65 -1040.79,-716.07 -1755.67,-2048.56 -835.79,-3648.62z"/>
  <polygon class="fil1" points="4068.34,2853.43 6460.04,1463.23 4123.53,112.38 1784.39,1463.23 "/>
  <polygon class="fil2" points="4068.34,5951.23 6460.04,4561.03 4123.53,3210.17 1784.39,4561.03 "/>
  <polygon class="fil3" points="3127.43,686.82 2777.86,891.41 5117.02,2242.27 5466.56,2040.3 "/>
  <polygon class="fil3" points="2777.86,2040.3 3127.43,2242.27 5466.56,891.41 5117.02,686.82 "/>
  <polygon class="fil4" points="4070.96,5177.43 1902.66,3921 1902.66,2252.76 4070.96,3422.63 "/>
  <polygon class="fil4" points="1784.39,1463.23 4068.34,2853.43 4070.96,3424.91 1783.31,2189.39 "/>
  <polygon class="fil5" points="6460.04,1463.23 4068.34,2853.43 4070.96,3424.91 6460.02,2145.83 "/>
  <polygon class="fil6" points="3127.43,2242.27 2777.86,2040.3 2777.86,2772.13 3127.43,2974.08 "/>
  <polygon class="fil7" points="4070.96,5177.43 6352.3,3873.8 6352.3,2202.92 4070.96,3422.63 "/>
  <polygon class="fil8" points="5116.99,2242.27 5466.56,2040.3 5469.18,2751.87 5116.99,2974.08 "/>
  <polygon class="fil6" points="3127.43,2905.9 2777.86,2703.92 2777.86,4435.11 3127.43,4634.48 "/>
  <polygon class="fil8" points="5116.99,2916.38 5469.18,2714.42 5469.18,4380.03 5116.99,4582.01 "/>
  <path class="fil9" d="M3211.52 1397.66c0,-2.63 2.64,-2.63 2.64,-2.63 49.93,-60.32 107.74,-99.67 149.81,-99.67 310.12,5.25 528.27,10.49 575.57,15.74l420.53 243.94c-47.31,-2.62 -265.46,-7.87 -575.6,-15.74 -47.31,0 -105.12,36.72 -152.43,104.92 -52.57,65.58 -81.46,144.27 -81.46,207.22 0,62.95 21.01,104.92 49.93,123.28l-415.27 -238.69c-31.54,-18.36 -55.19,-57.71 -55.19,-128.53 -2.62,-65.58 28.92,-144.27 81.47,-209.84z"/>
  <path class="fil10" d="M3629.42 1638.98c49.93,-62.96 110.39,-104.93 152.43,-104.93 310.15,5.25 528.29,15.74 575.6,15.74 47.31,-55.08 265.46,-317.38 575.58,-679.36 47.3,-52.46 105.14,-81.31 152.45,-76.07 52.55,5.25 81.46,49.84 81.46,112.79 0,146.89 -107.76,285.91 -183.96,333.13l-1253.68 726.57c-78.87,44.59 -183.99,28.86 -183.99,-118.03 5.27,-62.96 36.81,-141.65 84.11,-209.84z"/>
  <path class="fil11" d="M4988.22 1193.06c49.93,-28.85 144.54,-136.4 144.54,-259.68 0,-47.21 -23.65,-78.69 -63.08,-83.94 -36.77,-5.24 -81.46,18.37 -115.62,55.09 -233.92,275.42 -417.91,493.13 -512.52,605.92l546.68 -317.39z"/>
  <path class="fil12" d="M3734.54 1917.02l546.69 -314.77c-94.62,-2.62 -278.61,-7.87 -512.53,-10.49 -31.54,0 -78.84,28.85 -115.62,78.69 -39.42,49.84 -63.1,107.55 -63.1,157.38 0,120.66 94.64,118.04 144.56,89.19z"/>
  <path class="fil13" d="M5090.72 794.36c-49.93,-5.24 -110.39,23.61 -152.43,76.07 -310.14,361.98 -528.29,624.28 -575.6,679.36l-375.84 -217.71 -42.04 -26.23c47.31,-55.08 265.45,-317.38 575.57,-679.36 47.31,-52.46 105.15,-81.31 152.46,-76.07 18.38,2.62 31.53,7.87 42.04,18.36l412.64 236.07c-13.15,-5.24 -23.65,-7.87 -36.8,-10.49z"/>
 </g>
</svg>
