<?xml version="1.0" encoding="utf-8"?>
<!-- Generator: Adobe Illustrator 14.0.0, SVG Export Plug-In  -->
<!DOCTYPE svg PUBLIC "-//W3C//DTD SVG 1.1//EN" "http://www.w3.org/Graphics/SVG/1.1/DTD/svg11.dtd" [
	<!ENTITY ns_flows "http://ns.adobe.com/Flows/1.0/">
]>
<svg version="1.1"
	 xmlns="http://www.w3.org/2000/svg" xmlns:xlink="http://www.w3.org/1999/xlink" xmlns:a="http://ns.adobe.com/AdobeSVGViewerExtensions/3.0/"
	 x="0px" y="0px" width="60px" height="60px" viewBox="0 0 60 60" enable-background="new 0 0 60 60" xml:space="preserve">
<defs>
</defs>
<g>
	<defs>
		<rect id="SVGID_1_" width="60" height="60"/>
	</defs>
	<clipPath id="SVGID_2_">
		<use xlink:href="#SVGID_1_"  overflow="visible"/>
	</clipPath>
	<path clip-path="url(#SVGID_2_)" fill="#D01919" d="M42.126,0H17.874C8.019,0,0,8.018,0,17.875v24.251C0,51.98,8.019,60,17.874,60
		h24.252C51.981,60,60,51.98,60,42.126V17.875C60,8.018,51.981,0,42.126,0 M53.964,42.126c0,6.538-5.3,11.838-11.838,11.838H17.874
		c-6.538,0-11.838-5.3-11.838-11.838V17.875c0-6.539,5.3-11.839,11.838-11.839h24.252c6.538,0,11.838,5.3,11.838,11.839V42.126z"/>
	<polygon clip-path="url(#SVGID_2_)" fill="#D01919" points="41.907,35.635 41.907,32.578 38.85,32.578 38.85,26.579 41.907,26.579 
		41.907,23.521 47.907,23.521 47.907,26.579 50.964,26.579 50.964,32.578 47.907,32.578 47.907,35.635 	"/>
	<path clip-path="url(#SVGID_2_)" fill="#D01919" d="M22.741,43.707c-0.349,0-0.7-0.013-1.055-0.039
		C14.838,43.155,9.285,37.37,9.045,30.496c-0.132-3.764,1.231-7.322,3.839-10.023c2.606-2.7,6.106-4.185,9.856-4.185
		c3.667,0,7.111,1.426,9.699,4.016l0.425,0.424l-4.243,4.243l-0.425-0.422c-1.47-1.457-3.407-2.261-5.456-2.261
		c-2.307,0-4.475,1.028-5.949,2.821c-1.474,1.792-2.056,4.145-1.602,6.457c0.604,3.061,3.079,5.48,6.161,6.02
		c0.463,0.081,0.931,0.122,1.39,0.122c3.297-0.001,6.181-2.07,7.26-5.124h-7.86v-6h13.901l0.102,0.475
		c0.208,0.973,0.313,1.963,0.313,2.945c0,0.738-0.056,1.438-0.164,2.08C35.296,38.706,29.469,43.707,22.741,43.707"/>
</g>
</svg>
