<?xml version="1.0" encoding="UTF-8"?>
<!DOCTYPE svg PUBLIC "-//W3C//DTD SVG 1.1//EN" "http://www.w3.org/Graphics/SVG/1.1/DTD/svg11.dtd">
<!-- Creator: CorelDRAW 2018 (64-Bit) -->
<svg xmlns="http://www.w3.org/2000/svg" xml:space="preserve" width="210mm" height="190mm" version="1.1" style="shape-rendering:geometricPrecision; text-rendering:geometricPrecision; image-rendering:optimizeQuality; fill-rule:evenodd; clip-rule:evenodd"
viewBox="0 0 21000 19000"
 xmlns:xlink="http://www.w3.org/1999/xlink">
 <defs>
  <style type="text/css">
   <![CDATA[
    .fil0 {fill:#FEFEFE}
   ]]>
  </style>
 </defs>
 <g id="Слой_x0020_1">
  <metadata id="CorelCorpID_0Corel-Layer"/>
  <g id="_1392222656752">
   <g>
    <path class="fil0" d="M20776.67 7533.87l-9954.33 -7288.35c-191.95,-140.52 -452.73,-140.52 -644.6,0l-9954.41 7288.35c-243.14,178.05 -295.97,519.46 -117.92,762.6 178.05,243.14 519.5,295.89 762.6,117.92l9631.99 -7052.38 9631.99 7052.35c97.13,71.16 210,105.41 321.89,105.41 168,0 333.79,-77.31 440.67,-223.33 178.09,-243.1 125.26,-584.52 -117.88,-762.57z"/>
   </g>
  </g>
  <g id="_1392222655120">
   <g>
    <path class="fil0" d="M18139 8537.9c-301.3,0 -545.63,244.29 -545.63,545.63l0 8685.02 -4364.97 -0.01 0 -4740.83c0,-1504.45 -1223.99,-2728.36 -2728.36,-2728.36 -1504.37,0 -2728.36,1223.99 -2728.36,2728.36l0 4740.87 -4365 0.01 0 -8685.02c0,-301.34 -244.33,-545.63 -545.63,-545.63 -301.3,0 -545.63,244.29 -545.63,545.63l0 9230.69c0,301.34 244.33,545.63 545.63,545.63l5456.26 0c286.95,0 521.76,-221.69 543.5,-503.14 1.31,-12.76 2.13,-26.7 2.13,-42.49l0 -5286.5c0,-902.71 734.38,-1637.1 1637.1,-1637.1 902.72,0 1637.1,734.43 1637.1,1637.1l0 5286.5c0,15.71 0.82,29.41 2.13,42 21.49,281.65 256.39,503.63 543.5,503.63l5456.27 0c301.34,0 545.63,-244.29 545.63,-545.63l0 -9230.69c-0.04,-301.38 -244.33,-545.67 -545.67,-545.67z"/>
   </g>
  </g>
  <g id="_1392222655600">
  </g>
  <g id="_1392222653776">
  </g>
  <g id="_1392222652560">
  </g>
  <g id="_1392222653584">
  </g>
  <g id="_1392222651728">
  </g>
  <g id="_1392222650640">
  </g>
  <g id="_1392222650160">
  </g>
  <g id="_1392222650992">
  </g>
  <g id="_1392222650928">
  </g>
  <g id="_1392222647472">
  </g>
  <g id="_1392222647920">
  </g>
  <g id="_1392222648848">
  </g>
  <g id="_1392222648272">
  </g>
  <g id="_1392222645840">
  </g>
  <g id="_1392222646320">
  </g>
 </g>
</svg>
