<?xml version="1.0" encoding="UTF-8"?>
<!DOCTYPE svg PUBLIC "-//W3C//DTD SVG 1.1//EN" "http://www.w3.org/Graphics/SVG/1.1/DTD/svg11.dtd">
<!-- Creator: CorelDRAW 2018 (64-Bit) -->
<svg xmlns="http://www.w3.org/2000/svg" xml:space="preserve" width="210mm" height="205mm" version="1.1" style="shape-rendering:geometricPrecision; text-rendering:geometricPrecision; image-rendering:optimizeQuality; fill-rule:evenodd; clip-rule:evenodd"
viewBox="0 0 21000 20500"
 xmlns:xlink="http://www.w3.org/1999/xlink"
 enable-background="new 0 0 512 512">
 <defs>
  <style type="text/css">
   <![CDATA[
    .fil0 {fill:#FEFEFE}
   ]]>
  </style>
 </defs>
 <g id="Слой_x0020_1">
  <metadata id="CorelCorpID_0Corel-Layer"/>
  <g id="_1392222624784">
   <g>
    <path class="fil0" d="M3285.35 16385.94c143.55,98.44 697.27,373.24 1164.84,-217.38l3166.41 -4626.56 3350.98 3232.03c176.37,168.16 418.36,258.4 664.45,229.69 241.99,-24.61 463.48,-151.76 607.03,-352.73l5557.62 -7969.34 200.98 2666.02c49.22,676.76 684.96,787.5 898.24,771.09 459.38,-36.91 808.01,-434.77 771.09,-898.24l-352.73 -4688.09c-32.81,-459.38 -434.77,-808.01 -898.24,-771.09l-4688.09 352.73c-459.38,32.81 -808.01,434.77 -771.09,898.24 32.81,459.38 430.66,803.91 898.24,771.09l2666.02 -200.98 -5094.14 7300.78 -3359.18 -3240.23c-176.37,-172.27 -422.46,-258.4 -664.45,-229.69 -246.09,24.61 -467.58,155.86 -607.03,360.94l-3728.32 5446.88c-262.5,381.45 -164.06,902.34 217.38,1164.84l-0.01 0z"/>
    <path class="fil0" d="M19712.11 18625.39l-17587.5 0 0 -17587.5c0,-463.48 -373.24,-836.72 -836.72,-836.72 -463.48,0 -836.72,373.24 -836.72,836.72l0 18424.22c0,463.48 373.24,836.72 836.72,836.72l18424.22 0c463.48,0 836.72,-373.24 836.72,-836.72 0,-463.48 -373.24,-836.72 -836.72,-836.72z"/>
   </g>
  </g>
 </g>
</svg>
