<?xml version="1.0" encoding="UTF-8"?>
<!DOCTYPE svg PUBLIC "-//W3C//DTD SVG 1.1//EN" "http://www.w3.org/Graphics/SVG/1.1/DTD/svg11.dtd">
<!-- Creator: CorelDRAW 2018 (64-Bit) -->
<svg xmlns="http://www.w3.org/2000/svg" xml:space="preserve" width="145mm" height="185mm" version="1.1" style="shape-rendering:geometricPrecision; text-rendering:geometricPrecision; image-rendering:optimizeQuality; fill-rule:evenodd; clip-rule:evenodd"
viewBox="0 0 14500 18500"
 xmlns:xlink="http://www.w3.org/1999/xlink">
 <defs>
  <style type="text/css">
   <![CDATA[
    .fil0 {fill:#FEFEFE;fill-rule:nonzero}
   ]]>
  </style>
 </defs>
 <g id="Слой_x0020_1">
  <metadata id="CorelCorpID_0Corel-Layer"/>
  <g id="surface1">
   <path class="fil0" d="M9852.3 340.64c-82.66,-87.06 -195.99,-139.32 -313.44,-139.32l-7032.3 0c-1297.64,0 -2368.76,1066.86 -2368.76,2364.36l0 13298.11c0,1297.65 1071.12,2364.5 2368.76,2364.5l9544.65 0c1297.64,0 2368.76,-1066.85 2368.76,-2364.5l0 -10559.24c0,-113.19 -52.26,-221.98 -126.26,-304.77l-4441.41 -4659.14zm126.25 1397.77l2974.06 3122.04 -1933.33 0c-574.76,0 -1040.73,-461.56 -1040.73,-1036.32l0 -2085.72zm2072.66 15619.01l-9544.65 0c-814.21,0 -1497.89,-674.88 -1497.89,-1493.63l0 -13298.11c0,-814.2 679.28,-1493.49 1497.89,-1493.49l6601.12 0 0 2751.94c0,1058.05 853.55,1907.19 1911.6,1907.19l2529.82 0 0 10132.47c0,818.75 -679.29,1493.63 -1497.89,1493.63zm0 0z"/>
   <path class="fil0" d="M10862.49 14352.97l-7167.22 0c-239.45,0 -435.43,195.85 -435.43,435.44 0,239.45 195.98,435.43 435.43,435.43l7171.62 0c239.45,0 435.44,-195.98 435.44,-435.43 0,-239.59 -195.99,-435.44 -439.84,-435.44zm0 0z"/>
   <path class="fil0" d="M6020.44 11513.84c87.2,91.46 204.79,139.46 322.24,139.46 104.53,0 209.06,-39.2 296.11,-113.19l3609.75 -3309.36c178.52,-161.06 191.58,-439.84 26.13,-613.96 -161.06,-178.52 -439.84,-187.32 -613.96,-26.13l-3296.3 3013.25 -1611.08 -1750.54c-161.05,-178.52 -439.7,-187.19 -613.96,-26 -178.52,161.06 -187.18,439.7 -26.13,613.96l1907.2 2072.51zm0 0z"/>
  </g>
 </g>
</svg>
