<?xml version="1.0" encoding="UTF-8"?>
<!DOCTYPE svg PUBLIC "-//W3C//DTD SVG 1.1//EN" "http://www.w3.org/Graphics/SVG/1.1/DTD/svg11.dtd">
<!-- Creator: CorelDRAW 2018 (64-Bit) -->
<svg xmlns="http://www.w3.org/2000/svg" xml:space="preserve" width="155mm" height="182mm" version="1.1" style="shape-rendering:geometricPrecision; text-rendering:geometricPrecision; image-rendering:optimizeQuality; fill-rule:evenodd; clip-rule:evenodd"
viewBox="0 0 15500 18200"
 xmlns:xlink="http://www.w3.org/1999/xlink">
 <defs>
  <style type="text/css">
   <![CDATA[
    .fil1 {fill:#FEFEFE}
    .fil0 {fill:#FEFEFE;fill-rule:nonzero}
   ]]>
  </style>
 </defs>
 <g id="Слой_x0020_1">
  <metadata id="CorelCorpID_0Corel-Layer"/>
  <path class="fil0" d="M11475.27 166.3c-68.22,-71.93 -161.6,-114.98 -258.57,-114.98l-5799.43 0c-955.18,0 -1752.47,700.19 -1910.49,1612.32 -804.31,140.15 -1436.42,775.7 -1576.43,1576.56 -930.01,143.59 -1644.64,951.61 -1644.64,1921.09l0 10967.03c0,1070.16 865.37,1949.97 1935.53,1949.97l7871.53 0c955.18,0 1748.89,-696.75 1910.49,-1608.88 822.33,-125.57 1475.89,-771.99 1615.9,-1590.73 912.13,-158.03 1605.17,-955.18 1605.17,-1914.08l0 -8704.58c0,-93.38 -32.32,-183.19 -96.96,-251.41l-3652.1 -3842.31zm86.23 1152.68l2470.68 2574.79 -1594.44 0c-474.09,0 -876.24,-380.7 -876.24,-854.78l0 -1720.01zm-1468.73 16041.1l-7871.53 0c-675.16,0 -1217.32,-556.6 -1217.32,-1231.76l0 -10966.89c0,-560.32 359.1,-1034.26 897.69,-1177.85l0 10564.74c0,1070.16 865.5,1949.97 1935.52,1949.97l7422.76 0c-154.45,502.69 -617.67,861.79 -1167.12,861.79zm1616.03 -1580l-7871.67 0c-671.44,0 -1217.32,-556.6 -1217.32,-1231.76l0 -10967.03c0,-549.45 359.11,-1012.67 861.8,-1167.12l0 10554.15c0,1070.02 865.5,1949.83 1935.66,1949.83l7458.52 0c-154.32,502.83 -617.67,861.93 -1166.99,861.93zm1580 -1580.14l-7871.53 0c-671.58,0 -1217.32,-556.6 -1217.32,-1231.76l0 -10966.89c0,-671.58 542.16,-1231.76 1217.32,-1231.76l5426.03 0 0 2269.46c0,872.66 721.78,1572.99 1594.44,1572.99l2068.38 0 0 8356.2c0,675.16 -542.16,1231.76 -1217.32,1231.76zm0 0z"/>
  <path class="fil0" d="M12308.45 11901.74l-5910.83 0c-197.5,0 -359.1,161.6 -359.1,359.1 0,197.5 161.6,359.1 359.1,359.1l5914.41 0c197.5,0 359.1,-161.6 359.1,-359.1 0,-197.5 -161.6,-359.1 -362.68,-359.1zm0 0z"/>
  <path id="XMLID_449_" class="fil1" d="M9908.25 8011.25c873.97,0 1584.99,-711.03 1584.99,-1584.99 0,-873.96 -711.02,-1584.99 -1584.99,-1584.99 -3.41,0 -6.8,0.05 -10.18,0.19l-1294.73 0c-0.14,0 -0.25,-0.02 -0.36,-0.02 -154.47,0 -279.7,125.23 -279.7,279.7l0 0.02 0 2610.39 0 839.11 -279.72 0c-154.47,0 -279.71,125.23 -279.71,279.71 0,154.47 125.23,279.7 279.71,279.7l279.7 0 0 1584.99c0,154.47 125.23,279.71 279.7,279.71 154.48,0 279.71,-125.24 279.71,-279.71l0 -1584.99 1025.58 0c154.47,0 279.71,-125.23 279.71,-279.71 0,-154.47 -125.23,-279.7 -279.71,-279.7l-1025.58 0 0 -559.41 1025.58 0zm0 -2610.39c3.02,0 6.04,-0.05 9.03,-0.14 561.38,4.84 1016.56,463.04 1016.56,1025.54 0,565.51 -460.08,1025.58 -1025.59,1025.58l-1025.58 0 0 -2050.98 1025.58 0z"/>
 </g>
</svg>
