<?xml version="1.0" encoding="utf-8"?>
<!-- Generator: Adobe Illustrator 14.0.0, SVG Export Plug-In  -->
<!DOCTYPE svg PUBLIC "-//W3C//DTD SVG 1.1//EN" "http://www.w3.org/Graphics/SVG/1.1/DTD/svg11.dtd" [
	<!ENTITY ns_flows "http://ns.adobe.com/Flows/1.0/">
]>
<svg version="1.1"
	 xmlns="http://www.w3.org/2000/svg" xmlns:xlink="http://www.w3.org/1999/xlink" xmlns:a="http://ns.adobe.com/AdobeSVGViewerExtensions/3.0/"
	 x="0px" y="0px" width="30px" height="30px" viewBox="0 0 30 30" enable-background="new 0 0 30 30" xml:space="preserve">
<defs>
</defs>
<g>
	<defs>
		<rect id="SVGID_1_" width="30" height="30"/>
	</defs>
	<clipPath id="SVGID_2_">
		<use xlink:href="#SVGID_1_"  overflow="visible"/>
	</clipPath>
	<path clip-path="url(#SVGID_2_)" fill="#F1872B" d="M21.063,0H8.938C4.008,0,0,4.009,0,8.938v12.125C0,25.991,4.008,30,8.938,30
		h12.125C25.99,30,30,25.991,30,21.063V8.938C30,4.009,25.99,0,21.063,0 M26.982,21.063c0,3.27-2.65,5.919-5.92,5.919H8.938
		c-3.269,0-5.92-2.649-5.92-5.919V8.938c0-3.27,2.651-5.92,5.92-5.92h12.125c3.27,0,5.92,2.65,5.92,5.92V21.063z"/>
	<path clip-path="url(#SVGID_2_)" fill="#F1872B" d="M14.959,15.211c2.931,0.009,5.326-2.341,5.342-5.241
		c0.015-2.969-2.343-5.371-5.279-5.378c-2.93-0.009-5.311,2.359-5.328,5.297C9.678,12.795,12.057,15.201,14.959,15.211
		 M15.001,7.303c1.44,0.001,2.589,1.15,2.595,2.593c0.005,1.443-1.142,2.599-2.581,2.604c-1.445,0.006-2.604-1.135-2.615-2.572
		C12.39,8.471,13.549,7.302,15.001,7.303"/>
	<path clip-path="url(#SVGID_2_)" fill="#F1872B" d="M19.668,15.205c-0.288,0.073-0.537,0.22-0.77,0.397
		c-2.349,1.58-5.563,1.536-7.903-0.072c-0.115-0.079-0.234-0.154-0.36-0.213c-0.65-0.306-1.275-0.163-1.646,0.37
		c-0.434,0.623-0.38,1.227,0.169,1.755c0.144,0.137,0.305,0.255,0.46,0.377c1.255,0.982,2.722,1.382,4.349,1.552
		c-0.115,0.123-0.189,0.208-0.268,0.287c-1.193,1.195-2.385,2.394-3.581,3.586c-0.247,0.247-0.424,0.522-0.441,0.882
		C9.65,24.658,9.98,25.188,10.5,25.44c0.489,0.237,0.99,0.162,1.411-0.253c0.938-0.925,1.869-1.855,2.786-2.799
		c0.23-0.237,0.356-0.288,0.616-0.016c0.892,0.935,1.821,1.834,2.733,2.752c0.238,0.239,0.506,0.41,0.851,0.435
		c0.542,0.037,1.094-0.31,1.342-0.837c0.226-0.483,0.14-0.997-0.271-1.412c-1.204-1.218-2.418-2.427-3.626-3.642
		c-0.083-0.085-0.146-0.155-0.281-0.302c0.89-0.106,1.789-0.267,2.61-0.585c0.867-0.337,1.649-0.818,2.298-1.485
		c0.424-0.435,0.429-0.981,0.084-1.54C20.751,15.267,20.23,15.061,19.668,15.205"/>
</g>
</svg>
