<?xml version="1.0" encoding="utf-8"?>
<!-- Generator: Adobe Illustrator 14.0.0, SVG Export Plug-In  -->
<!DOCTYPE svg PUBLIC "-//W3C//DTD SVG 1.1//EN" "http://www.w3.org/Graphics/SVG/1.1/DTD/svg11.dtd" [
	<!ENTITY ns_flows "http://ns.adobe.com/Flows/1.0/">
]>
<svg version="1.1"
	 xmlns="http://www.w3.org/2000/svg" xmlns:xlink="http://www.w3.org/1999/xlink" xmlns:a="http://ns.adobe.com/AdobeSVGViewerExtensions/3.0/"
	 x="0px" y="0px" width="60px" height="60px" viewBox="0 0 60 60" enable-background="new 0 0 60 60" xml:space="preserve">
<defs>
</defs>
<g>
	<defs>
		<rect id="SVGID_1_" width="60" height="60"/>
	</defs>
	<clipPath id="SVGID_2_">
		<use xlink:href="#SVGID_1_"  overflow="visible"/>
	</clipPath>
	<path clip-path="url(#SVGID_2_)" fill="#1BA1EF" d="M42.126,0H17.875C8.018,0,0,8.018,0,17.875v24.251C0,51.98,8.018,60,17.875,60
		h24.251C51.981,60,60,51.98,60,42.126V17.875C60,8.018,51.981,0,42.126,0 M53.964,42.126c0,6.538-5.3,11.838-11.838,11.838H17.875
		c-6.538,0-11.839-5.3-11.839-11.838V17.875c0-6.539,5.301-11.839,11.839-11.839h24.251c6.538,0,11.838,5.3,11.838,11.839V42.126z"
		/>
	<path clip-path="url(#SVGID_2_)" fill="#1BA1EF" d="M44.594,20.951c-1.069,0.475-2.229,0.803-3.438,0.946
		c1.238-0.74,2.182-1.915,2.635-3.315c-1.158,0.686-2.438,1.186-3.812,1.452c-1.085-1.158-2.646-1.887-4.364-1.887
		c-3.304,0-5.985,2.681-5.985,5.985c0,0.472,0.055,0.925,0.153,1.363c-4.98-0.251-9.387-2.628-12.344-6.254
		c-0.517,0.882-0.812,1.916-0.812,3.012c0,2.075,1.061,3.91,2.663,4.977c-0.98-0.025-1.897-0.3-2.706-0.748v0.073
		c0,2.903,2.066,5.324,4.8,5.878c-0.5,0.133-1.033,0.203-1.576,0.203c-0.383,0-0.757-0.034-1.131-0.104
		c0.766,2.377,2.973,4.104,5.593,4.158c-2.05,1.604-4.633,2.556-7.437,2.556c-0.482,0-0.953-0.026-1.426-0.08
		c2.654,1.701,5.799,2.688,9.182,2.688c11.008,0,17.029-9.12,17.029-17.027L41.6,24.051C42.776,23.206,43.79,22.154,44.594,20.951"
		/>
</g>
</svg>
