<?xml version="1.0" encoding="utf-8"?>
<!-- Generator: Adobe Illustrator 14.0.0, SVG Export Plug-In  -->
<!DOCTYPE svg PUBLIC "-//W3C//DTD SVG 1.1//EN" "http://www.w3.org/Graphics/SVG/1.1/DTD/svg11.dtd" [
	<!ENTITY ns_flows "http://ns.adobe.com/Flows/1.0/">
]>
<svg version="1.1"
	 xmlns="http://www.w3.org/2000/svg" xmlns:xlink="http://www.w3.org/1999/xlink" xmlns:a="http://ns.adobe.com/AdobeSVGViewerExtensions/3.0/"
	 x="0px" y="0px" width="60px" height="60px" viewBox="0 0 60 60" enable-background="new 0 0 60 60" xml:space="preserve">
<defs>
</defs>
<g>
	<defs>
		<rect id="SVGID_1_" width="60" height="60"/>
	</defs>
	<clipPath id="SVGID_2_">
		<use xlink:href="#SVGID_1_"  overflow="visible"/>
	</clipPath>
	<path clip-path="url(#SVGID_2_)" fill="#5374BD" d="M42.126,0H17.874C8.019,0,0,8.018,0,17.875v24.251C0,51.98,8.019,60,17.874,60
		h24.252C51.981,60,60,51.98,60,42.126V17.875C60,8.018,51.981,0,42.126,0 M53.964,42.126c0,6.538-5.3,11.838-11.838,11.838H17.874
		c-6.538,0-11.838-5.3-11.838-11.838V17.875c0-6.539,5.3-11.839,11.838-11.839h24.252c6.538,0,11.838,5.3,11.838,11.839V42.126z"/>
	<path clip-path="url(#SVGID_2_)" fill="#5374BD" d="M48.255,20.7h-5.242c-0.549,0-1.024,0.365-1.161,0.897
		c-0.683,2.664-3.021,10.395-7.314,11.182c-0.37,0.067-0.715-0.215-0.715-0.591v-10.84c0-0.663-0.537-1.2-1.2-1.2L25.25,20.15
		c-0.512,0-0.806,0.607-0.466,0.989c0.674,0.76,1.35,2.055,1.382,4.206v6.845c0,0.383-0.355,0.658-0.731,0.588
		c-4.281-0.812-6.612-8.521-7.294-11.181c-0.136-0.532-0.612-0.897-1.16-0.897h-5.236c-0.772,0-1.343,0.712-1.171,1.465
		c1.132,4.967,5.818,20.86,19.423,20.86l-0.002-0.006h2.627c0.663,0,1.2-0.536,1.2-1.199v-1.618c0-1.092,1.34-1.619,2.084-0.818
		l2.308,2.485c0.682,0.733,1.637,1.15,2.638,1.15h7.495c0.524,0,0.797-0.623,0.44-1.008l-5.533-5.964
		c3.798-4.917,5.541-11.116,6.173-13.89C49.597,21.41,49.022,20.7,48.255,20.7"/>
</g>
</svg>
